<svg id="visual" viewBox="0 0 960 300" width="960" height="300" xmlns="http://www.w3.org/2000/svg" xmlns:xlink="http://www.w3.org/1999/xlink" version="1.1"><rect x="0" y="0" width="960" height="300" fill="#9904c9"></rect><g transform="translate(478.13936071270916 156.27780218707642)"><path d="M46.1 -75.8C65.2 -59.5 89.9 -55.9 105.1 -42.3C120.3 -28.6 126 -4.8 125.1 19.7C124.3 44.3 116.9 69.6 99.5 81.6C82 93.7 54.4 92.4 29.4 99.3C4.5 106.2 -17.7 121.2 -37.5 119.2C-57.2 117.2 -74.3 98.2 -90.1 78.8C-105.8 59.3 -120.2 39.3 -121.4 18.6C-122.5 -2.1 -110.4 -23.5 -100 -45.5C-89.6 -67.5 -81 -90.1 -64.7 -107.6C-48.3 -125.2 -24.1 -137.6 -5.3 -129.3C13.5 -121 27 -92.1 46.1 -75.8" fill="#5e287c"></path></g></svg>