<svg id="visual" viewBox="0 0 960 300" width="960" height="300" xmlns="http://www.w3.org/2000/svg" xmlns:xlink="http://www.w3.org/1999/xlink" version="1.1"><rect x="0" y="0" width="960" height="300" fill="#202731"></rect><path d="M0 89L22.8 91.2C45.7 93.3 91.3 97.7 137 99.5C182.7 101.3 228.3 100.7 274 102.3C319.7 104 365.3 108 411.2 106C457 104 503 96 548.8 93.2C594.7 90.3 640.3 92.7 686 91.3C731.7 90 777.3 85 823 87.2C868.7 89.3 914.3 98.7 937.2 103.3L960 108L960 0L937.2 0C914.3 0 868.7 0 823 0C777.3 0 731.7 0 686 0C640.3 0 594.7 0 548.8 0C503 0 457 0 411.2 0C365.3 0 319.7 0 274 0C228.3 0 182.7 0 137 0C91.3 0 45.7 0 22.8 0L0 0Z" fill="#ff6f61"></path><path d="M0 63L22.8 67.7C45.7 72.3 91.3 81.7 137 82.7C182.7 83.7 228.3 76.3 274 75.2C319.7 74 365.3 79 411.2 82.8C457 86.7 503 89.3 548.8 88.3C594.7 87.3 640.3 82.7 686 83.2C731.7 83.7 777.3 89.3 823 90.3C868.7 91.3 914.3 87.7 937.2 85.8L960 84L960 0L937.2 0C914.3 0 868.7 0 823 0C777.3 0 731.7 0 686 0C640.3 0 594.7 0 548.8 0C503 0 457 0 411.2 0C365.3 0 319.7 0 274 0C228.3 0 182.7 0 137 0C91.3 0 45.7 0 22.8 0L0 0Z" fill="#f76455"></path><path d="M0 63L22.8 65.5C45.7 68 91.3 73 137 72.8C182.7 72.7 228.3 67.3 274 65C319.7 62.7 365.3 63.3 411.2 64.7C457 66 503 68 548.8 69.7C594.7 71.3 640.3 72.7 686 70.7C731.7 68.7 777.3 63.3 823 59.5C868.7 55.7 914.3 53.3 937.2 52.2L960 51L960 0L937.2 0C914.3 0 868.7 0 823 0C777.3 0 731.7 0 686 0C640.3 0 594.7 0 548.8 0C503 0 457 0 411.2 0C365.3 0 319.7 0 274 0C228.3 0 182.7 0 137 0C91.3 0 45.7 0 22.8 0L0 0Z" fill="#ee5849"></path><path d="M0 38L22.8 39.3C45.7 40.7 91.3 43.3 137 45.5C182.7 47.7 228.3 49.3 274 49.5C319.7 49.7 365.3 48.3 411.2 47.2C457 46 503 45 548.8 46.7C594.7 48.3 640.3 52.7 686 49.8C731.7 47 777.3 37 823 36.8C868.7 36.7 914.3 46.3 937.2 51.2L960 56L960 0L937.2 0C914.3 0 868.7 0 823 0C777.3 0 731.7 0 686 0C640.3 0 594.7 0 548.8 0C503 0 457 0 411.2 0C365.3 0 319.7 0 274 0C228.3 0 182.7 0 137 0C91.3 0 45.7 0 22.8 0L0 0Z" fill="#e64c3d"></path><path d="M0 15L22.8 18.2C45.7 21.3 91.3 27.7 137 31.2C182.7 34.7 228.3 35.3 274 34.3C319.7 33.3 365.3 30.7 411.2 29.7C457 28.7 503 29.3 548.8 27C594.7 24.7 640.3 19.3 686 19.2C731.7 19 777.3 24 823 24.8C868.7 25.7 914.3 22.3 937.2 20.7L960 19L960 0L937.2 0C914.3 0 868.7 0 823 0C777.3 0 731.7 0 686 0C640.3 0 594.7 0 548.8 0C503 0 457 0 411.2 0C365.3 0 319.7 0 274 0C228.3 0 182.7 0 137 0C91.3 0 45.7 0 22.8 0L0 0Z" fill="#dd3f31"></path></svg>