<svg id="visual" viewBox="0 0 960 300" width="960" height="300" xmlns="http://www.w3.org/2000/svg" xmlns:xlink="http://www.w3.org/1999/xlink" version="1.1"><rect x="0" y="0" width="960" height="300" fill="#07000f"></rect><path d="M0 105L16 107.2C32 109.3 64 113.7 96 114.2C128 114.7 160 111.3 192 112.3C224 113.3 256 118.7 288 121.2C320 123.7 352 123.3 384 123C416 122.7 448 122.3 480 121.5C512 120.7 544 119.3 576 117.7C608 116 640 114 672 111.5C704 109 736 106 768 103.7C800 101.3 832 99.7 864 99.2C896 98.7 928 99.3 944 99.7L960 100L960 0L944 0C928 0 896 0 864 0C832 0 800 0 768 0C736 0 704 0 672 0C640 0 608 0 576 0C544 0 512 0 480 0C448 0 416 0 384 0C352 0 320 0 288 0C256 0 224 0 192 0C160 0 128 0 96 0C64 0 32 0 16 0L0 0Z" fill="#48026e"></path><path d="M0 86L16 87.7C32 89.3 64 92.7 96 93.3C128 94 160 92 192 89C224 86 256 82 288 78.7C320 75.3 352 72.7 384 74.5C416 76.3 448 82.7 480 85C512 87.3 544 85.7 576 84C608 82.3 640 80.7 672 82.5C704 84.3 736 89.7 768 88C800 86.3 832 77.7 864 74.7C896 71.7 928 74.3 944 75.7L960 77L960 0L944 0C928 0 896 0 864 0C832 0 800 0 768 0C736 0 704 0 672 0C640 0 608 0 576 0C544 0 512 0 480 0C448 0 416 0 384 0C352 0 320 0 288 0C256 0 224 0 192 0C160 0 128 0 96 0C64 0 32 0 16 0L0 0Z" fill="#61048c"></path><path d="M0 50L16 51.3C32 52.7 64 55.3 96 55.7C128 56 160 54 192 54.7C224 55.3 256 58.7 288 61.3C320 64 352 66 384 63.2C416 60.3 448 52.7 480 48.8C512 45 544 45 576 45.3C608 45.7 640 46.3 672 49.5C704 52.7 736 58.3 768 58.2C800 58 832 52 864 51.2C896 50.3 928 54.7 944 56.8L960 59L960 0L944 0C928 0 896 0 864 0C832 0 800 0 768 0C736 0 704 0 672 0C640 0 608 0 576 0C544 0 512 0 480 0C448 0 416 0 384 0C352 0 320 0 288 0C256 0 224 0 192 0C160 0 128 0 96 0C64 0 32 0 16 0L0 0Z" fill="#7c05aa"></path><path d="M0 41L16 41C32 41 64 41 96 38.5C128 36 160 31 192 30C224 29 256 32 288 31.7C320 31.3 352 27.7 384 28C416 28.3 448 32.7 480 34.3C512 36 544 35 576 35.7C608 36.3 640 38.7 672 39.2C704 39.7 736 38.3 768 36.3C800 34.3 832 31.7 864 31.2C896 30.7 928 32.3 944 33.2L960 34L960 0L944 0C928 0 896 0 864 0C832 0 800 0 768 0C736 0 704 0 672 0C640 0 608 0 576 0C544 0 512 0 480 0C448 0 416 0 384 0C352 0 320 0 288 0C256 0 224 0 192 0C160 0 128 0 96 0C64 0 32 0 16 0L0 0Z" fill="#9904c9"></path></svg>